<svg width="153" height="42" viewBox="0 0 153 42" fill="none" xmlns="http://www.w3.org/2000/svg">
<path d="M125.257 15.0041L126.906 14.502L127.678 12.6215L129.145 13.7895H130.355C130.914 13.7895 131.465 13.6086 131.944 13.3148C132.328 13.0783 132.746 12.8982 133.187 12.7792C134.311 12.4757 135.566 12.6104 136.603 13.1497C137.037 13.3743 137.523 13.4934 137.985 13.4934L145.227 13.1638C147.237 13.1638 149 15.0458 149 17.1919V29.3794H146.858L144.43 22.5239H136.51C135.811 27.0581 134.896 29.227 134.852 29.3794H132.554L130.699 19.8229L123.851 19.4778L123 17.2387L125.118 16.0835L125.257 15.0041Z" fill="white"/>
<path d="M143.353 24.0471L144.068 26.0636C143.907 26.8101 143.688 27.7096 143.38 28.8212L143.224 29.3791H139.809L140.57 26.3322L138.857 24.0471H143.353ZM129.761 22.9844L130.709 27.865L129.244 29.3791H126.098L129.761 22.9844Z" fill="white"/>
<path d="M9.192 28.16C8.38133 28.16 7.64533 28.0747 6.984 27.904C6.33333 27.7333 5.74667 27.4933 5.224 27.184C4.712 26.864 4.24267 26.4907 3.816 26.064L5.304 24.08C5.976 24.752 6.648 25.2213 7.32 25.488C8.00267 25.744 8.68 25.872 9.352 25.872C9.66133 25.872 9.96 25.84 10.248 25.776C10.5467 25.7013 10.7867 25.584 10.968 25.424C11.1493 25.264 11.24 25.056 11.24 24.8C11.24 24.6293 11.192 24.4853 11.096 24.368C11 24.24 10.8667 24.1333 10.696 24.048C10.5253 23.9627 10.3227 23.888 10.088 23.824C9.864 23.76 9.624 23.7067 9.368 23.664C9.12267 23.6107 8.86133 23.5627 8.584 23.52C7.912 23.4133 7.31467 23.264 6.792 23.072C6.28 22.88 5.848 22.64 5.496 22.352C5.144 22.064 4.872 21.728 4.68 21.344C4.49867 20.96 4.408 20.5227 4.408 20.032C4.408 19.5093 4.53067 19.0347 4.776 18.608C5.032 18.1707 5.37867 17.8027 5.816 17.504C6.25333 17.1947 6.76 16.96 7.336 16.8C7.912 16.6293 8.52 16.544 9.16 16.544C9.928 16.544 10.5947 16.6187 11.16 16.768C11.736 16.9173 12.2373 17.1307 12.664 17.408C13.0907 17.6747 13.448 17.9893 13.736 18.352L12.216 20.08C11.9493 19.8133 11.6507 19.5893 11.32 19.408C10.9893 19.2267 10.6373 19.088 10.264 18.992C9.90133 18.896 9.53333 18.848 9.16 18.848C8.78667 18.848 8.456 18.8907 8.168 18.976C7.88 19.0507 7.65067 19.1627 7.48 19.312C7.30933 19.4613 7.224 19.648 7.224 19.872C7.224 20.064 7.29333 20.2293 7.432 20.368C7.57067 20.496 7.752 20.608 7.976 20.704C8.21067 20.8 8.472 20.88 8.76 20.944C9.048 20.9973 9.336 21.0453 9.624 21.088C10.232 21.184 10.8027 21.312 11.336 21.472C11.8693 21.6213 12.3387 21.824 12.744 22.08C13.1493 22.3253 13.464 22.6453 13.688 23.04C13.9227 23.424 14.04 23.904 14.04 24.48C14.04 25.2587 13.8267 25.9253 13.4 26.48C12.984 27.024 12.4133 27.44 11.688 27.728C10.9627 28.016 10.1307 28.16 9.192 28.16ZM22.9166 28.16C22.0313 28.16 21.2046 28.0213 20.4366 27.744C19.6793 27.456 19.0126 27.056 18.4366 26.544C17.8713 26.032 17.434 25.424 17.1246 24.72C16.8153 24.0053 16.6606 23.216 16.6606 22.352C16.6606 21.5093 16.8206 20.736 17.1406 20.032C17.4713 19.328 17.9193 18.72 18.4846 18.208C19.05 17.696 19.7166 17.296 20.4846 17.008C21.2526 16.72 22.0793 16.576 22.9646 16.576C23.5726 16.576 24.1593 16.6507 24.7246 16.8C25.3006 16.9493 25.834 17.1573 26.3246 17.424C26.8153 17.6907 27.2313 17.9947 27.5726 18.336L25.9566 20.352C25.7006 20.1067 25.4233 19.8933 25.1246 19.712C24.826 19.52 24.49 19.3707 24.1166 19.264C23.7433 19.1467 23.3326 19.088 22.8846 19.088C22.4473 19.088 22.0206 19.1627 21.6046 19.312C21.1886 19.4613 20.8206 19.68 20.5006 19.968C20.1806 20.2453 19.9246 20.592 19.7326 21.008C19.5513 21.4133 19.4606 21.872 19.4606 22.384C19.4606 22.896 19.5566 23.3547 19.7486 23.76C19.9406 24.1653 20.202 24.512 20.5326 24.8C20.874 25.0773 21.2686 25.2907 21.7166 25.44C22.1646 25.5893 22.65 25.664 23.1726 25.664C23.6313 25.664 24.0473 25.6 24.4206 25.472C24.794 25.344 25.13 25.1893 25.4286 25.008C25.7273 24.816 25.994 24.6133 26.2286 24.4L27.5246 26.496C27.2366 26.7733 26.8526 27.04 26.3726 27.296C25.8926 27.552 25.354 27.76 24.7566 27.92C24.1593 28.08 23.546 28.16 22.9166 28.16ZM29.2435 28L34.1235 16.8H36.5395L41.3875 28H38.6035L36.0115 21.936C35.9155 21.7013 35.8195 21.4667 35.7235 21.232C35.6382 20.9973 35.5528 20.7573 35.4675 20.512C35.3822 20.2667 35.3022 20.0267 35.2275 19.792C35.1528 19.5573 35.0835 19.3333 35.0195 19.12L35.5635 19.104C35.4995 19.36 35.4248 19.6053 35.3395 19.84C35.2648 20.0747 35.1848 20.3093 35.0995 20.544C35.0142 20.768 34.9235 20.9973 34.8275 21.232C34.7315 21.4667 34.6355 21.7067 34.5395 21.952L31.9475 28H29.2435ZM31.5315 25.92L32.4115 23.872H38.1715L38.8275 25.92H31.5315ZM44.0682 28V16.8H46.5002L50.9802 23.312L49.3162 23.296L53.8442 16.8H56.2122V28H53.5722V24.448C53.5722 23.52 53.5936 22.672 53.6362 21.904C53.6896 21.1253 53.7749 20.3467 53.8923 19.568L54.1802 20.432L50.6442 25.28H49.5882L46.0842 20.432L46.3882 19.568C46.5056 20.3253 46.5856 21.088 46.6282 21.856C46.6816 22.6133 46.7082 23.4773 46.7082 24.448V28H44.0682ZM58.8991 28L63.7791 16.8H66.1951L71.0431 28H68.2591L65.6671 21.936C65.5711 21.7013 65.4751 21.4667 65.3791 21.232C65.2938 20.9973 65.2085 20.7573 65.1231 20.512C65.0378 20.2667 64.9578 20.0267 64.8831 19.792C64.8085 19.5573 64.7391 19.3333 64.6751 19.12L65.2191 19.104C65.1551 19.36 65.0805 19.6053 64.9951 19.84C64.9205 20.0747 64.8405 20.3093 64.7551 20.544C64.6698 20.768 64.5791 20.9973 64.4831 21.232C64.3871 21.4667 64.2911 21.7067 64.1951 21.952L61.6031 28H58.8991ZM61.1871 25.92L62.0671 23.872H67.8271L68.4831 25.92H61.1871ZM78.9154 28.16C78.03 28.16 77.2034 28.0213 76.4354 27.744C75.678 27.456 75.0114 27.056 74.4354 26.544C73.87 26.032 73.4327 25.424 73.1234 24.72C72.814 24.0053 72.6594 23.216 72.6594 22.352C72.6594 21.5093 72.8194 20.736 73.1394 20.032C73.47 19.328 73.918 18.72 74.4834 18.208C75.0487 17.696 75.7154 17.296 76.4834 17.008C77.2514 16.72 78.078 16.576 78.9634 16.576C79.5714 16.576 80.158 16.6507 80.7234 16.8C81.2994 16.9493 81.8327 17.1573 82.3234 17.424C82.814 17.6907 83.23 17.9947 83.5714 18.336L81.9554 20.352C81.6994 20.1067 81.422 19.8933 81.1234 19.712C80.8247 19.52 80.4887 19.3707 80.1154 19.264C79.742 19.1467 79.3314 19.088 78.8834 19.088C78.446 19.088 78.0194 19.1627 77.6034 19.312C77.1874 19.4613 76.8194 19.68 76.4994 19.968C76.1794 20.2453 75.9234 20.592 75.7314 21.008C75.55 21.4133 75.4594 21.872 75.4594 22.384C75.4594 22.896 75.5554 23.3547 75.7474 23.76C75.9394 24.1653 76.2007 24.512 76.5314 24.8C76.8727 25.0773 77.2674 25.2907 77.7154 25.44C78.1634 25.5893 78.6487 25.664 79.1714 25.664C79.63 25.664 80.046 25.6 80.4194 25.472C80.7927 25.344 81.1287 25.1893 81.4274 25.008C81.726 24.816 81.9927 24.6133 82.2274 24.4L83.5234 26.496C83.2354 26.7733 82.8514 27.04 82.3714 27.296C81.8914 27.552 81.3527 27.76 80.7554 27.92C80.158 28.08 79.5447 28.16 78.9154 28.16ZM92.2822 28.16C91.3969 28.16 90.5702 28.0213 89.8022 27.744C89.0449 27.456 88.3782 27.056 87.8022 26.544C87.2369 26.032 86.7996 25.424 86.4902 24.72C86.1809 24.0053 86.0262 23.216 86.0262 22.352C86.0262 21.5093 86.1862 20.736 86.5062 20.032C86.8369 19.328 87.2849 18.72 87.8502 18.208C88.4156 17.696 89.0822 17.296 89.8502 17.008C90.6182 16.72 91.4449 16.576 92.3302 16.576C92.9382 16.576 93.5249 16.6507 94.0902 16.8C94.6662 16.9493 95.1996 17.1573 95.6902 17.424C96.1809 17.6907 96.5969 17.9947 96.9382 18.336L95.3222 20.352C95.0662 20.1067 94.7889 19.8933 94.4902 19.712C94.1916 19.52 93.8556 19.3707 93.4822 19.264C93.1089 19.1467 92.6982 19.088 92.2502 19.088C91.8129 19.088 91.3862 19.1627 90.9702 19.312C90.5542 19.4613 90.1862 19.68 89.8662 19.968C89.5462 20.2453 89.2902 20.592 89.0982 21.008C88.9169 21.4133 88.8262 21.872 88.8262 22.384C88.8262 22.896 88.9222 23.3547 89.1142 23.76C89.3062 24.1653 89.5676 24.512 89.8982 24.8C90.2396 25.0773 90.6342 25.2907 91.0822 25.44C91.5302 25.5893 92.0156 25.664 92.5382 25.664C92.9969 25.664 93.4129 25.6 93.7862 25.472C94.1596 25.344 94.4956 25.1893 94.7942 25.008C95.0929 24.816 95.3596 24.6133 95.5942 24.4L96.8902 26.496C96.6022 26.7733 96.2182 27.04 95.7382 27.296C95.2582 27.552 94.7196 27.76 94.1222 27.92C93.5249 28.08 92.9116 28.16 92.2822 28.16ZM98.6091 28L103.489 16.8H105.905L110.753 28H107.969L105.377 21.936C105.281 21.7013 105.185 21.4667 105.089 21.232C105.004 20.9973 104.918 20.7573 104.833 20.512C104.748 20.2667 104.668 20.0267 104.593 19.792C104.518 19.5573 104.449 19.3333 104.385 19.12L104.929 19.104C104.865 19.36 104.79 19.6053 104.705 19.84C104.63 20.0747 104.55 20.3093 104.465 20.544C104.38 20.768 104.289 20.9973 104.193 21.232C104.097 21.4667 104.001 21.7067 103.905 21.952L101.313 28H98.6091ZM100.897 25.92L101.777 23.872H107.537L108.193 25.92H100.897Z" fill="white"/>
</svg>
